<svg width="418.8250244140625px" height="128px" xmlns="http://www.w3.org/2000/svg" viewBox="40.587487792968744 11 418.8250244140625 128" style="background: rgba(0, 0, 0, 0);" preserveAspectRatio="xMidYMid"><defs><linearGradient id="editing-shiny-gradient" x1="0.04322727117869957" x2="0.9567727288213004" y1="0.2966316784620999" y2="0.7033683215379001" gradientUnits="objectBoundingBox"><stop offset="0.0" stop-color="#ffb200"></stop><stop offset="0.5" stop-color="#e10057"></stop><stop offset="1.0" stop-color="#5a1a80"></stop></linearGradient><linearGradient id="editing-shiny-gradient2" x1="0" x2="0" y1="0" y2="1"><stop offset="0.2" stop-color="#fff" stop-opacity="0.8"></stop><stop offset="0.8" stop-color="#fff" stop-opacity="0"></stop></linearGradient><filter id="editing-shiny2" x="-100%" y="-100%" width="300%" height="300%"><feMorphology operator="erode" radius="2"></feMorphology></filter><filter id="editing-shiny" x="-100%" y="-100%" width="300%" height="300%"><feFlood flood-color="#fff" result="flood"></feFlood><feConvolveMatrix in="SourceGraphic" result="conv" order="8,8" divisor="1" kernelMatrix="0 0 0 0 0 0 0 0 0 0 0 1 1 0 0 0 0 0 0 1 1 0 0 0 0 0 1 0 0 1 0 0 0 0 1 0 0 1 0 0 0 1 0 0 0 0 1 0 0 1 1 0 0 1 1 0 0 0 0 1 1 0 0 0 "></feConvolveMatrix><feOffset dx="0" dy="4" in="conv" result="offset"></feOffset><feComposite operator="in" in="flood" in2="offset" result="comp"></feComposite><feGaussianBlur in="offset" stdDeviation="3" result="shadow"></feGaussianBlur><feColorMatrix in="shadow" type="matrix" values="0.7 0 0 0 0  0 0.7 0 0 0  0 0 0.7 0 0  0 0 0 0.3 0" result="dark-shadow"></feColorMatrix><feOffset dx="0" dy="4" in="dark-shadow" result="offset-shadow"></feOffset><feOffset dx="0" dy="2" in="conv" result="offset-2"></feOffset><feComposite operator="out" in="offset" in2="offset-2" result="edge-diff"></feComposite><feGaussianBlur in="edge-diff" stdDeviation="1" result="edge-blur"></feGaussianBlur><feColorMatrix in="edge-blur" result="edge-shadow" type="matrix" values="0 0 0 0 0  0 0 0 0 0  0 0 0 0 0  0 0 0 0.5 0"></feColorMatrix><feComposite operator="in" in="edge-shadow" in2="offset" result="edge-shadow-in"></feComposite><feOffset dx="0" dy="1" in="edge-shadow-in" result="edge-shadow-final"></feOffset><feMerge result="out"><feMergeNode in="offset-shadow"></feMergeNode><feMergeNode in="comp"></feMergeNode><feMergeNode in="edge-shadow-final"></feMergeNode><feMergeNode in="SourceGraphic"></feMergeNode></feMerge></filter></defs><g filter="url(#editing-shiny)"><g transform="translate(103.27998471260071, 105.49999618530273)"><path d="M35.66-33.41L35.66 0L33.59 0L30.28-4.59L30.28-4.59Q29.06-3.50 27.70-2.55L27.70-2.55L27.70-2.55Q26.34-1.59 24.84-0.89L24.84-0.89L24.84-0.89Q23.34-0.19 21.77 0.22L21.77 0.22L21.77 0.22Q20.19 0.63 18.56 0.63L18.56 0.63L18.56 0.63Q15.03 0.63 11.92-0.56L11.92-0.56L11.92-0.56Q8.81-1.75 6.48-4.02L6.48-4.02L6.48-4.02Q4.16-6.28 2.81-9.56L2.81-9.56L2.81-9.56Q1.47-12.84 1.47-17.03L1.47-17.03L1.47-17.03Q1.47-20.94 2.81-24.20L2.81-24.20L2.81-24.20Q4.16-27.47 6.48-29.81L6.48-29.81L6.48-29.81Q8.81-32.16 11.92-33.45L11.92-33.45L11.92-33.45Q15.03-34.75 18.56-34.75L18.56-34.75L18.56-34.75Q20.19-34.75 21.78-34.34L21.78-34.34L21.78-34.34Q23.38-33.94 24.88-33.22L24.88-33.22L24.88-33.22Q26.38-32.50 27.73-31.53L27.73-31.53L27.73-31.53Q29.09-30.56 30.28-29.44L30.28-29.44L33.59-33.41L35.66-33.41ZM27.06-17.03L27.06-17.03L27.06-17.03Q27.06-18.78 26.39-20.42L26.39-20.42L26.39-20.42Q25.72-22.06 24.56-23.33L24.56-23.33L24.56-23.33Q23.41-24.59 21.86-25.36L21.86-25.36L21.86-25.36Q20.31-26.13 18.56-26.13L18.56-26.13L18.56-26.13Q16.81-26.13 15.27-25.53L15.27-25.53L15.27-25.53Q13.72-24.94 12.58-23.78L12.58-23.78L12.58-23.78Q11.44-22.63 10.78-20.92L10.78-20.92L10.78-20.92Q10.13-19.22 10.13-17.03L10.13-17.03L10.13-17.03Q10.13-14.84 10.78-13.14L10.78-13.14L10.78-13.14Q11.44-11.44 12.58-10.28L12.58-10.28L12.58-10.28Q13.72-9.13 15.27-8.53L15.27-8.53L15.27-8.53Q16.81-7.94 18.56-7.94L18.56-7.94L18.56-7.94Q20.31-7.94 21.86-8.70L21.86-8.70L21.86-8.70Q23.41-9.47 24.56-10.73L24.56-10.73L24.56-10.73Q25.72-12 26.39-13.64L26.39-13.64L26.39-13.64Q27.06-15.28 27.06-17.03ZM50.75-2.25L50.75 12.75L42.16 12.75L42.16-33.47L44.22-33.47L47.63-29.44L47.63-29.44Q48.78-30.53 50.16-31.50L50.16-31.50L50.16-31.50Q51.53-32.47 53.02-33.17L53.02-33.17L53.02-33.17Q54.50-33.88 56.09-34.28L56.09-34.28L56.09-34.28Q57.69-34.69 59.31-34.69L59.31-34.69L59.31-34.69Q62.84-34.69 65.95-33.42L65.95-33.42L65.95-33.42Q69.06-32.16 71.39-29.84L71.39-29.84L71.39-29.84Q73.72-27.53 75.06-24.27L75.06-24.27L75.06-24.27Q76.41-21 76.41-17.03L76.41-17.03L76.41-17.03Q76.41-12.91 75.06-9.61L75.06-9.61L75.06-9.61Q73.72-6.31 71.39-4.02L71.39-4.02L71.39-4.02Q69.06-1.72 65.95-0.50L65.95-0.50L65.95-0.50Q62.84 0.72 59.31 0.72L59.31 0.72L59.31 0.72Q58.19 0.72 57.08 0.47L57.08 0.47L57.08 0.47Q55.97 0.22 54.89-0.20L54.89-0.20L54.89-0.20Q53.81-0.63 52.77-1.16L52.77-1.16L52.77-1.16Q51.72-1.69 50.75-2.25L50.75-2.25ZM67.84-17.03L67.84-17.03L67.84-17.03Q67.84-19.16 67.17-20.84L67.17-20.84L67.17-20.84Q66.50-22.53 65.34-23.70L65.34-23.70L65.34-23.70Q64.19-24.88 62.63-25.50L62.63-25.50L62.63-25.50Q61.06-26.13 59.31-26.13L59.31-26.13L59.31-26.13Q57.56-26.13 56.02-25.50L56.02-25.50L56.02-25.50Q54.47-24.88 53.31-23.70L53.31-23.70L53.31-23.70Q52.16-22.53 51.48-20.84L51.48-20.84L51.48-20.84Q50.81-19.16 50.81-17.03L50.81-17.03L50.81-17.03Q50.81-15 51.48-13.31L51.48-13.31L51.48-13.31Q52.16-11.63 53.31-10.44L53.31-10.44L53.31-10.44Q54.47-9.25 56.02-8.59L56.02-8.59L56.02-8.59Q57.56-7.94 59.31-7.94L59.31-7.94L59.31-7.94Q61.06-7.94 62.63-8.59L62.63-8.59L62.63-8.59Q64.19-9.25 65.34-10.44L65.34-10.44L65.34-10.44Q66.50-11.63 67.17-13.31L67.17-13.31L67.17-13.31Q67.84-15 67.84-17.03ZM91.19-42.56L91.19-42.56L91.19-42.56Q91.19-41.38 90.73-40.34L90.73-40.34L90.73-40.34Q90.28-39.31 89.50-38.55L89.50-38.55L89.50-38.55Q88.72-37.78 87.67-37.33L87.67-37.33L87.67-37.33Q86.63-36.88 85.44-36.88L85.44-36.88L85.44-36.88Q84.25-36.88 83.20-37.33L83.20-37.33L83.20-37.33Q82.16-37.78 81.39-38.55L81.39-38.55L81.39-38.55Q80.63-39.31 80.17-40.34L80.17-40.34L80.17-40.34Q79.72-41.38 79.72-42.56L79.72-42.56L79.72-42.56Q79.72-43.72 80.17-44.77L80.17-44.77L80.17-44.77Q80.63-45.81 81.39-46.58L81.39-46.58L81.39-46.58Q82.16-47.34 83.20-47.80L83.20-47.80L83.20-47.80Q84.25-48.25 85.44-48.25L85.44-48.25L85.44-48.25Q86.63-48.25 87.67-47.80L87.67-47.80L87.67-47.80Q88.72-47.34 89.50-46.58L89.50-46.58L89.50-46.58Q90.28-45.81 90.73-44.77L90.73-44.77L90.73-44.77Q91.19-43.72 91.19-42.56ZM89.72-33.47L89.72 0L81.13 0L81.13-33.47L89.72-33.47ZM125.47-26.81L125.47-26.81L119.22-20.53L119.22-20.53Q118.75-21.84 117.94-22.89L117.94-22.89L117.94-22.89Q117.13-23.94 116.11-24.66L116.11-24.66L116.11-24.66Q115.09-25.38 113.91-25.75L113.91-25.75L113.91-25.75Q112.72-26.13 111.47-26.13L111.47-26.13L111.47-26.13Q109.72-26.13 108.17-25.41L108.17-25.41L108.17-25.41Q106.63-24.69 105.48-23.39L105.48-23.39L105.48-23.39Q104.34-22.09 103.69-20.31L103.69-20.31L103.69-20.31Q103.03-18.53 103.03-16.38L103.03-16.38L103.03-16.38Q103.03-14.63 103.69-13.09L103.69-13.09L103.69-13.09Q104.34-11.56 105.48-10.41L105.48-10.41L105.48-10.41Q106.63-9.25 108.17-8.59L108.17-8.59L108.17-8.59Q109.72-7.94 111.47-7.94L111.47-7.94L111.47-7.94Q112.72-7.94 113.88-8.28L113.88-8.28L113.88-8.28Q115.03-8.63 116.05-9.27L116.05-9.27L116.05-9.27Q117.06-9.91 117.86-10.83L117.86-10.83L117.86-10.83Q118.66-11.75 119.16-12.88L119.16-12.88L125.41-6.59L125.41-6.59Q124.22-4.91 122.67-3.56L122.67-3.56L122.67-3.56Q121.13-2.22 119.33-1.28L119.33-1.28L119.33-1.28Q117.53-0.34 115.55 0.14L115.55 0.14L115.55 0.14Q113.56 0.63 111.47 0.63L111.47 0.63L111.47 0.63Q107.94 0.63 104.83-0.70L104.83-0.70L104.83-0.70Q101.72-2.03 99.39-4.34L99.39-4.34L99.39-4.34Q97.06-6.66 95.72-9.75L95.72-9.75L95.72-9.75Q94.38-12.84 94.38-16.38L94.38-16.38L94.38-16.38Q94.38-20.22 95.72-23.56L95.72-23.56L95.72-23.56Q97.06-26.91 99.39-29.39L99.39-29.39L99.39-29.39Q101.72-31.88 104.83-33.31L104.83-33.31L104.83-33.31Q107.94-34.75 111.47-34.75L111.47-34.75L111.47-34.75Q113.56-34.75 115.58-34.22L115.58-34.22L115.58-34.22Q117.59-33.69 119.42-32.67L119.42-32.67L119.42-32.67Q121.25-31.66 122.80-30.19L122.80-30.19L122.80-30.19Q124.34-28.72 125.47-26.81ZM161.47-17.03L161.47-17.03L161.47-17.03Q161.47-13.28 160.13-10.05L160.13-10.05L160.13-10.05Q158.78-6.81 156.47-4.45L156.47-4.45L156.47-4.45Q154.16-2.09 151.05-0.73L151.05-0.73L151.05-0.73Q147.94 0.63 144.38 0.63L144.38 0.63L144.38 0.63Q140.84 0.63 137.73-0.73L137.73-0.73L137.73-0.73Q134.63-2.09 132.30-4.45L132.30-4.45L132.30-4.45Q129.97-6.81 128.63-10.05L128.63-10.05L128.63-10.05Q127.28-13.28 127.28-17.03L127.28-17.03L127.28-17.03Q127.28-20.84 128.63-24.09L128.63-24.09L128.63-24.09Q129.97-27.34 132.30-29.70L132.30-29.70L132.30-29.70Q134.63-32.06 137.73-33.41L137.73-33.41L137.73-33.41Q140.84-34.75 144.38-34.75L144.38-34.75L144.38-34.75Q147.94-34.75 151.05-33.48L151.05-33.48L151.05-33.48Q154.16-32.22 156.47-29.89L156.47-29.89L156.47-29.89Q158.78-27.56 160.13-24.30L160.13-24.30L160.13-24.30Q161.47-21.03 161.47-17.03ZM152.88-17.03L152.88-17.03L152.88-17.03Q152.88-19.09 152.20-20.77L152.20-20.77L152.20-20.77Q151.53-22.44 150.38-23.64L150.38-23.64L150.38-23.64Q149.22-24.84 147.67-25.48L147.67-25.48L147.67-25.48Q146.13-26.13 144.38-26.13L144.38-26.13L144.38-26.13Q142.63-26.13 141.08-25.48L141.08-25.48L141.08-25.48Q139.53-24.84 138.39-23.64L138.39-23.64L138.39-23.64Q137.25-22.44 136.59-20.77L136.59-20.77L136.59-20.77Q135.94-19.09 135.94-17.03L135.94-17.03L135.94-17.03Q135.94-15.09 136.59-13.44L136.59-13.44L136.59-13.44Q137.25-11.78 138.39-10.56L138.39-10.56L138.39-10.56Q139.53-9.34 141.08-8.64L141.08-8.64L141.08-8.64Q142.63-7.94 144.38-7.94L144.38-7.94L144.38-7.94Q146.13-7.94 147.67-8.59L147.67-8.59L147.67-8.59Q149.22-9.25 150.38-10.44L150.38-10.44L150.38-10.44Q151.53-11.63 152.20-13.31L152.20-13.31L152.20-13.31Q152.88-15 152.88-17.03ZM174.72-18.44L174.72 0L166.19 0L166.19-33.47L168.25-33.47L171.06-29.50L171.06-29.50Q173.13-31.38 175.75-32.39L175.75-32.39L175.75-32.39Q178.38-33.41 181.19-33.41L181.19-33.41L188.72-33.41L188.72-24.91L181.19-24.91L181.19-24.91Q179.84-24.91 178.66-24.41L178.66-24.41L178.66-24.41Q177.47-23.91 176.59-23.03L176.59-23.03L176.59-23.03Q175.72-22.16 175.22-20.97L175.22-20.97L175.22-20.97Q174.72-19.78 174.72-18.44L174.72-18.44ZM224.41-46.78L224.41 0L222.34 0L219.03-4.59L219.03-4.59Q217.81-3.50 216.45-2.55L216.45-2.55L216.45-2.55Q215.09-1.59 213.59-0.89L213.59-0.89L213.59-0.89Q212.09-0.19 210.52 0.22L210.52 0.22L210.52 0.22Q208.94 0.63 207.31 0.63L207.31 0.63L207.31 0.63Q203.78 0.63 200.67-0.70L200.67-0.70L200.67-0.70Q197.56-2.03 195.23-4.39L195.23-4.39L195.23-4.39Q192.91-6.75 191.56-9.98L191.56-9.98L191.56-9.98Q190.22-13.22 190.22-17.03L190.22-17.03L190.22-17.03Q190.22-20.81 191.56-24.06L191.56-24.06L191.56-24.06Q192.91-27.31 195.23-29.69L195.23-29.69L195.23-29.69Q197.56-32.06 200.67-33.41L200.67-33.41L200.67-33.41Q203.78-34.75 207.31-34.75L207.31-34.75L207.31-34.75Q208.44-34.75 209.64-34.56L209.64-34.56L209.64-34.56Q210.84-34.38 211.98-33.95L211.98-33.95L211.98-33.95Q213.13-33.53 214.13-32.84L214.13-32.84L214.13-32.84Q215.13-32.16 215.81-31.16L215.81-31.16L215.81-46.78L224.41-46.78ZM215.81-17.03L215.81-17.03L215.81-17.03Q215.81-18.78 215.14-20.42L215.14-20.42L215.14-20.42Q214.47-22.06 213.31-23.33L213.31-23.33L213.31-23.33Q212.16-24.59 210.61-25.36L210.61-25.36L210.61-25.36Q209.06-26.13 207.31-26.13L207.31-26.13L207.31-26.13Q205.56-26.13 204.02-25.50L204.02-25.50L204.02-25.50Q202.47-24.88 201.33-23.70L201.33-23.70L201.33-23.70Q200.19-22.53 199.53-20.84L199.53-20.84L199.53-20.84Q198.88-19.16 198.88-17.03L198.88-17.03L198.88-17.03Q198.88-15.19 199.53-13.53L199.53-13.53L199.53-13.53Q200.19-11.88 201.33-10.63L201.33-10.63L201.33-10.63Q202.47-9.38 204.02-8.66L204.02-8.66L204.02-8.66Q205.56-7.94 207.31-7.94L207.31-7.94L207.31-7.94Q209.06-7.94 210.61-8.70L210.61-8.70L210.61-8.70Q212.16-9.47 213.31-10.73L213.31-10.73L213.31-10.73Q214.47-12 215.14-13.64L215.14-13.64L215.14-13.64Q215.81-15.28 215.81-17.03ZM241.41-3.19L241.41-3.19L241.41-3.19Q241.41-2.06 241-1.08L241-1.08L241-1.08Q240.59-0.09 239.88 0.63L239.88 0.63L239.88 0.63Q239.16 1.34 238.19 1.77L238.19 1.77L238.19 1.77Q237.22 2.19 236.09 2.19L236.09 2.19L236.09 2.19Q235 2.19 234.02 1.77L234.02 1.77L234.02 1.77Q233.03 1.34 232.30 0.63L232.30 0.63L232.30 0.63Q231.56-0.09 231.14-1.08L231.14-1.08L231.14-1.08Q230.72-2.06 230.72-3.19L230.72-3.19L230.72-3.19Q230.72-4.28 231.14-5.25L231.14-5.25L231.14-5.25Q231.56-6.22 232.30-6.94L232.30-6.94L232.30-6.94Q233.03-7.66 234.02-8.08L234.02-8.08L234.02-8.08Q235-8.50 236.09-8.50L236.09-8.50L236.09-8.50Q237.22-8.50 238.19-8.08L238.19-8.08L238.19-8.08Q239.16-7.66 239.88-6.94L239.88-6.94L239.88-6.94Q240.59-6.22 241-5.25L241-5.25L241-5.25Q241.41-4.28 241.41-3.19ZM257.94-42.56L257.94-42.56L257.94-42.56Q257.94-41.38 257.48-40.34L257.48-40.34L257.48-40.34Q257.03-39.31 256.27-38.55L256.27-38.55L256.27-38.55Q255.50-37.78 254.45-37.33L254.45-37.33L254.45-37.33Q253.41-36.88 252.25-36.88L252.25-36.88L252.25-36.88Q251.03-36.88 249.98-37.33L249.98-37.33L249.98-37.33Q248.94-37.78 248.16-38.55L248.16-38.55L248.16-38.55Q247.38-39.31 246.92-40.34L246.92-40.34L246.92-40.34Q246.47-41.38 246.47-42.56L246.47-42.56L246.47-42.56Q246.47-43.72 246.92-44.77L246.92-44.77L246.92-44.77Q247.38-45.81 248.16-46.58L248.16-46.58L248.16-46.58Q248.94-47.34 249.98-47.80L249.98-47.80L249.98-47.80Q251.03-48.25 252.25-48.25L252.25-48.25L252.25-48.25Q253.41-48.25 254.45-47.80L254.45-47.80L254.45-47.80Q255.50-47.34 256.27-46.58L256.27-46.58L256.27-46.58Q257.03-45.81 257.48-44.77L257.48-44.77L257.48-44.77Q257.94-43.72 257.94-42.56ZM239.38 12.75L235.03 12.75L235.03 4.16L239.75 4.22L239.75 4.22Q241.47 4.22 242.94 3.52L242.94 3.52L242.94 3.52Q244.41 2.81 245.48 1.64L245.48 1.64L245.48 1.64Q246.56 0.47 247.19-1.06L247.19-1.06L247.19-1.06Q247.81-2.59 247.81-4.28L247.81-4.28L247.81-33.47L256.53-33.47L256.53-4.28L256.47-4.28L256.47-4.28Q256.44-1.94 255.83 0.25L255.83 0.25L255.83 0.25Q255.22 2.44 254.09 4.33L254.09 4.33L254.09 4.33Q252.97 6.22 251.41 7.77L251.41 7.77L251.41 7.77Q249.84 9.31 247.95 10.42L247.95 10.42L247.95 10.42Q246.06 11.53 243.89 12.14L243.89 12.14L243.89 12.14Q241.72 12.75 239.38 12.75L239.38 12.75ZM281.34 0L281.34 0L261.84 0L261.84-8.50L281.34-8.50L281.34-8.50Q282.22-8.50 282.84-9.13L282.84-9.13L282.84-9.13Q283.47-9.75 283.47-10.63L283.47-10.63L283.47-10.63Q283.47-11.53 282.84-11.81L282.84-11.81L282.84-11.81Q282.22-12.09 281.34-12.09L281.34-12.09L272.47-12.09L272.47-12.09Q270.25-12.09 268.31-12.94L268.31-12.94L268.31-12.94Q266.38-13.78 264.94-15.23L264.94-15.23L264.94-15.23Q263.50-16.69 262.67-18.63L262.67-18.63L262.67-18.63Q261.84-20.56 261.84-22.78L261.84-22.78L261.84-22.78Q261.84-25 262.67-26.94L262.67-26.94L262.67-26.94Q263.50-28.88 264.94-30.31L264.94-30.31L264.94-30.31Q266.38-31.75 268.31-32.58L268.31-32.58L268.31-32.58Q270.25-33.41 272.47-33.41L272.47-33.41L289.75-33.41L289.75-24.91L272.47-24.91L272.47-24.91Q271.59-24.91 270.97-24.28L270.97-24.28L270.97-24.28Q270.34-23.66 270.34-22.78L270.34-22.78L270.34-22.78Q270.34-21.88 270.97-21.23L270.97-21.23L270.97-21.23Q271.59-20.59 272.47-20.59L272.47-20.59L281.34-20.59L281.34-20.59Q283.53-20.59 285.47-19.86L285.47-19.86L285.47-19.86Q287.41-19.13 288.84-17.81L288.84-17.81L288.84-17.81Q290.28-16.50 291.13-14.66L291.13-14.66L291.13-14.66Q291.97-12.81 291.97-10.63L291.97-10.63L291.97-10.63Q291.97-8.41 291.13-6.48L291.13-6.48L291.13-6.48Q290.28-4.56 288.84-3.11L288.84-3.11L288.84-3.11Q287.41-1.66 285.47-0.83L285.47-0.83L285.47-0.83Q283.53 0 281.34 0Z" fill="url(#editing-shiny-gradient)"></path></g></g><g filter="url(#editing-shiny2)"><g transform="translate(103.27999997138977, 105.50000381469727)"><path d="M35.66-33.41L35.66 0L33.59 0L30.28-4.59L30.28-4.59Q29.06-3.50 27.70-2.55L27.70-2.55L27.70-2.55Q26.34-1.59 24.84-0.89L24.84-0.89L24.84-0.89Q23.34-0.19 21.77 0.22L21.77 0.22L21.77 0.22Q20.19 0.63 18.56 0.63L18.56 0.63L18.56 0.63Q15.03 0.63 11.92-0.56L11.92-0.56L11.92-0.56Q8.81-1.75 6.48-4.02L6.48-4.02L6.48-4.02Q4.16-6.28 2.81-9.56L2.81-9.56L2.81-9.56Q1.47-12.84 1.47-17.03L1.47-17.03L1.47-17.03Q1.47-20.94 2.81-24.20L2.81-24.20L2.81-24.20Q4.16-27.47 6.48-29.81L6.48-29.81L6.48-29.81Q8.81-32.16 11.92-33.45L11.92-33.45L11.92-33.45Q15.03-34.75 18.56-34.75L18.56-34.75L18.56-34.75Q20.19-34.75 21.78-34.34L21.78-34.34L21.78-34.34Q23.38-33.94 24.88-33.22L24.88-33.22L24.88-33.22Q26.38-32.50 27.73-31.53L27.73-31.53L27.73-31.53Q29.09-30.56 30.28-29.44L30.28-29.44L33.59-33.41L35.66-33.41ZM27.06-17.03L27.06-17.03L27.06-17.03Q27.06-18.78 26.39-20.42L26.39-20.42L26.39-20.42Q25.72-22.06 24.56-23.33L24.56-23.33L24.56-23.33Q23.41-24.59 21.86-25.36L21.86-25.36L21.86-25.36Q20.31-26.13 18.56-26.13L18.56-26.13L18.56-26.13Q16.81-26.13 15.27-25.53L15.27-25.53L15.27-25.53Q13.72-24.94 12.58-23.78L12.58-23.78L12.58-23.78Q11.44-22.63 10.78-20.92L10.78-20.92L10.78-20.92Q10.13-19.22 10.13-17.03L10.13-17.03L10.13-17.03Q10.13-14.84 10.78-13.14L10.78-13.14L10.78-13.14Q11.44-11.44 12.58-10.28L12.58-10.28L12.58-10.28Q13.72-9.13 15.27-8.53L15.27-8.53L15.27-8.53Q16.81-7.94 18.56-7.94L18.56-7.94L18.56-7.94Q20.31-7.94 21.86-8.70L21.86-8.70L21.86-8.70Q23.41-9.47 24.56-10.73L24.56-10.73L24.56-10.73Q25.72-12 26.39-13.64L26.39-13.64L26.39-13.64Q27.06-15.28 27.06-17.03ZM50.75-2.25L50.75 12.75L42.16 12.75L42.16-33.47L44.22-33.47L47.63-29.44L47.63-29.44Q48.78-30.53 50.16-31.50L50.16-31.50L50.16-31.50Q51.53-32.47 53.02-33.17L53.02-33.17L53.02-33.17Q54.50-33.88 56.09-34.28L56.09-34.28L56.09-34.28Q57.69-34.69 59.31-34.69L59.31-34.69L59.31-34.69Q62.84-34.69 65.95-33.42L65.95-33.42L65.95-33.42Q69.06-32.16 71.39-29.84L71.39-29.84L71.39-29.84Q73.72-27.53 75.06-24.27L75.06-24.27L75.06-24.27Q76.41-21 76.41-17.03L76.41-17.03L76.41-17.03Q76.41-12.91 75.06-9.61L75.06-9.61L75.06-9.61Q73.72-6.31 71.39-4.02L71.39-4.02L71.39-4.02Q69.06-1.72 65.95-0.50L65.95-0.50L65.95-0.50Q62.84 0.72 59.31 0.72L59.31 0.72L59.31 0.72Q58.19 0.72 57.08 0.47L57.08 0.47L57.08 0.47Q55.97 0.22 54.89-0.20L54.89-0.20L54.89-0.20Q53.81-0.63 52.77-1.16L52.77-1.16L52.77-1.16Q51.72-1.69 50.75-2.25L50.75-2.25ZM67.84-17.03L67.84-17.03L67.84-17.03Q67.84-19.16 67.17-20.84L67.17-20.84L67.17-20.84Q66.50-22.53 65.34-23.70L65.34-23.70L65.34-23.70Q64.19-24.88 62.63-25.50L62.63-25.50L62.63-25.50Q61.06-26.13 59.31-26.13L59.31-26.13L59.31-26.13Q57.56-26.13 56.02-25.50L56.02-25.50L56.02-25.50Q54.47-24.88 53.31-23.70L53.31-23.70L53.31-23.70Q52.16-22.53 51.48-20.84L51.48-20.84L51.48-20.84Q50.81-19.16 50.81-17.03L50.81-17.03L50.81-17.03Q50.81-15 51.48-13.31L51.48-13.31L51.48-13.31Q52.16-11.63 53.31-10.44L53.31-10.44L53.31-10.44Q54.47-9.25 56.02-8.59L56.02-8.59L56.02-8.59Q57.56-7.94 59.31-7.94L59.31-7.94L59.31-7.94Q61.06-7.94 62.63-8.59L62.63-8.59L62.63-8.59Q64.19-9.25 65.34-10.44L65.34-10.44L65.34-10.44Q66.50-11.63 67.17-13.31L67.17-13.31L67.17-13.31Q67.84-15 67.84-17.03ZM91.19-42.56L91.19-42.56L91.19-42.56Q91.19-41.38 90.73-40.34L90.73-40.34L90.73-40.34Q90.28-39.31 89.50-38.55L89.50-38.55L89.50-38.55Q88.72-37.78 87.67-37.33L87.67-37.33L87.67-37.33Q86.63-36.88 85.44-36.88L85.44-36.88L85.44-36.88Q84.25-36.88 83.20-37.33L83.20-37.33L83.20-37.33Q82.16-37.78 81.39-38.55L81.39-38.55L81.39-38.55Q80.63-39.31 80.17-40.34L80.17-40.34L80.17-40.34Q79.72-41.38 79.72-42.56L79.72-42.56L79.72-42.56Q79.72-43.72 80.17-44.77L80.17-44.77L80.17-44.77Q80.63-45.81 81.39-46.58L81.39-46.58L81.39-46.58Q82.16-47.34 83.20-47.80L83.20-47.80L83.20-47.80Q84.25-48.25 85.44-48.25L85.44-48.25L85.44-48.25Q86.63-48.25 87.67-47.80L87.67-47.80L87.67-47.80Q88.72-47.34 89.50-46.58L89.50-46.58L89.50-46.58Q90.28-45.81 90.73-44.77L90.73-44.77L90.73-44.77Q91.19-43.72 91.19-42.56ZM89.72-33.47L89.72 0L81.13 0L81.13-33.47L89.72-33.47ZM125.47-26.81L125.47-26.81L119.22-20.53L119.22-20.53Q118.75-21.84 117.94-22.89L117.94-22.89L117.94-22.89Q117.13-23.94 116.11-24.66L116.11-24.66L116.11-24.66Q115.09-25.38 113.91-25.75L113.91-25.75L113.91-25.75Q112.72-26.13 111.47-26.13L111.47-26.13L111.47-26.13Q109.72-26.13 108.17-25.41L108.17-25.41L108.17-25.41Q106.63-24.69 105.48-23.39L105.48-23.39L105.48-23.39Q104.34-22.09 103.69-20.31L103.69-20.31L103.69-20.31Q103.03-18.53 103.03-16.38L103.03-16.38L103.03-16.38Q103.03-14.63 103.69-13.09L103.69-13.09L103.69-13.09Q104.34-11.56 105.48-10.41L105.48-10.41L105.48-10.41Q106.63-9.25 108.17-8.59L108.17-8.59L108.17-8.59Q109.72-7.94 111.47-7.94L111.47-7.94L111.47-7.94Q112.72-7.94 113.88-8.28L113.88-8.28L113.88-8.28Q115.03-8.63 116.05-9.27L116.05-9.27L116.05-9.27Q117.06-9.91 117.86-10.83L117.86-10.83L117.86-10.83Q118.66-11.75 119.16-12.88L119.16-12.88L125.41-6.59L125.41-6.59Q124.22-4.91 122.67-3.56L122.67-3.56L122.67-3.56Q121.13-2.22 119.33-1.28L119.33-1.28L119.33-1.28Q117.53-0.34 115.55 0.14L115.55 0.14L115.55 0.14Q113.56 0.63 111.47 0.63L111.47 0.63L111.47 0.63Q107.94 0.63 104.83-0.70L104.83-0.70L104.83-0.70Q101.72-2.03 99.39-4.34L99.39-4.34L99.39-4.34Q97.06-6.66 95.72-9.75L95.72-9.75L95.72-9.75Q94.38-12.84 94.38-16.38L94.38-16.38L94.38-16.38Q94.38-20.22 95.72-23.56L95.72-23.56L95.72-23.56Q97.06-26.91 99.39-29.39L99.39-29.39L99.39-29.39Q101.72-31.88 104.83-33.31L104.83-33.31L104.83-33.31Q107.94-34.75 111.47-34.75L111.47-34.75L111.47-34.75Q113.56-34.75 115.58-34.22L115.58-34.22L115.58-34.22Q117.59-33.69 119.42-32.67L119.42-32.67L119.42-32.67Q121.25-31.66 122.80-30.19L122.80-30.19L122.80-30.19Q124.34-28.72 125.47-26.81ZM161.47-17.03L161.47-17.03L161.47-17.03Q161.47-13.28 160.13-10.05L160.13-10.05L160.13-10.05Q158.78-6.81 156.47-4.45L156.47-4.45L156.47-4.45Q154.16-2.09 151.05-0.73L151.05-0.73L151.05-0.73Q147.94 0.63 144.38 0.63L144.38 0.63L144.38 0.63Q140.84 0.63 137.73-0.73L137.73-0.73L137.73-0.73Q134.63-2.09 132.30-4.45L132.30-4.45L132.30-4.45Q129.97-6.81 128.63-10.05L128.63-10.05L128.63-10.05Q127.28-13.28 127.28-17.03L127.28-17.03L127.28-17.03Q127.28-20.84 128.63-24.09L128.63-24.09L128.63-24.09Q129.97-27.34 132.30-29.70L132.30-29.70L132.30-29.70Q134.63-32.06 137.73-33.41L137.73-33.41L137.73-33.41Q140.84-34.75 144.38-34.75L144.38-34.75L144.38-34.75Q147.94-34.75 151.05-33.48L151.05-33.48L151.05-33.48Q154.16-32.22 156.47-29.89L156.47-29.89L156.47-29.89Q158.78-27.56 160.13-24.30L160.13-24.30L160.13-24.30Q161.47-21.03 161.47-17.03ZM152.88-17.03L152.88-17.03L152.88-17.03Q152.88-19.09 152.20-20.77L152.20-20.77L152.20-20.77Q151.53-22.44 150.38-23.64L150.38-23.64L150.38-23.64Q149.22-24.84 147.67-25.48L147.67-25.48L147.67-25.48Q146.13-26.13 144.38-26.13L144.38-26.13L144.38-26.13Q142.63-26.13 141.08-25.48L141.08-25.48L141.08-25.48Q139.53-24.84 138.39-23.64L138.39-23.64L138.39-23.64Q137.25-22.44 136.59-20.77L136.59-20.77L136.59-20.77Q135.94-19.09 135.94-17.03L135.94-17.03L135.94-17.03Q135.94-15.09 136.59-13.44L136.59-13.44L136.59-13.44Q137.25-11.78 138.39-10.56L138.39-10.56L138.39-10.56Q139.53-9.34 141.08-8.64L141.08-8.64L141.08-8.64Q142.63-7.94 144.38-7.94L144.38-7.94L144.38-7.94Q146.13-7.94 147.67-8.59L147.67-8.59L147.67-8.59Q149.22-9.25 150.38-10.44L150.38-10.44L150.38-10.44Q151.53-11.63 152.20-13.31L152.20-13.31L152.20-13.31Q152.88-15 152.88-17.03ZM174.72-18.44L174.72 0L166.19 0L166.19-33.47L168.25-33.47L171.06-29.50L171.06-29.50Q173.13-31.38 175.75-32.39L175.75-32.39L175.75-32.39Q178.38-33.41 181.19-33.41L181.19-33.41L188.72-33.41L188.72-24.91L181.19-24.91L181.19-24.91Q179.84-24.91 178.66-24.41L178.66-24.41L178.66-24.41Q177.47-23.91 176.59-23.03L176.59-23.03L176.59-23.03Q175.72-22.16 175.22-20.97L175.22-20.97L175.22-20.97Q174.72-19.78 174.72-18.44L174.72-18.44ZM224.41-46.78L224.41 0L222.34 0L219.03-4.59L219.03-4.59Q217.81-3.50 216.45-2.55L216.45-2.55L216.45-2.55Q215.09-1.59 213.59-0.89L213.59-0.89L213.59-0.89Q212.09-0.19 210.52 0.22L210.52 0.22L210.52 0.22Q208.94 0.63 207.31 0.63L207.31 0.63L207.31 0.63Q203.78 0.63 200.67-0.70L200.67-0.70L200.67-0.70Q197.56-2.03 195.23-4.39L195.23-4.39L195.23-4.39Q192.91-6.75 191.56-9.98L191.56-9.98L191.56-9.98Q190.22-13.22 190.22-17.03L190.22-17.03L190.22-17.03Q190.22-20.81 191.56-24.06L191.56-24.06L191.56-24.06Q192.91-27.31 195.23-29.69L195.23-29.69L195.23-29.69Q197.56-32.06 200.67-33.41L200.67-33.41L200.67-33.41Q203.78-34.75 207.31-34.75L207.31-34.75L207.31-34.75Q208.44-34.75 209.64-34.56L209.64-34.56L209.64-34.56Q210.84-34.38 211.98-33.95L211.98-33.95L211.98-33.95Q213.13-33.53 214.13-32.84L214.13-32.84L214.13-32.84Q215.13-32.16 215.81-31.16L215.81-31.16L215.81-46.78L224.41-46.78ZM215.81-17.03L215.81-17.03L215.81-17.03Q215.81-18.78 215.14-20.42L215.14-20.42L215.14-20.42Q214.47-22.06 213.31-23.33L213.31-23.33L213.31-23.33Q212.16-24.59 210.61-25.36L210.61-25.36L210.61-25.36Q209.06-26.13 207.31-26.13L207.31-26.13L207.31-26.13Q205.56-26.13 204.02-25.50L204.02-25.50L204.02-25.50Q202.47-24.88 201.33-23.70L201.33-23.70L201.33-23.70Q200.19-22.53 199.53-20.84L199.53-20.84L199.53-20.84Q198.88-19.16 198.88-17.03L198.88-17.03L198.88-17.03Q198.88-15.19 199.53-13.53L199.53-13.53L199.53-13.53Q200.19-11.88 201.33-10.63L201.33-10.63L201.33-10.63Q202.47-9.38 204.02-8.66L204.02-8.66L204.02-8.66Q205.56-7.94 207.31-7.94L207.31-7.94L207.31-7.94Q209.06-7.94 210.61-8.70L210.61-8.70L210.61-8.70Q212.16-9.47 213.31-10.73L213.31-10.73L213.31-10.73Q214.47-12 215.14-13.64L215.14-13.64L215.14-13.64Q215.81-15.28 215.81-17.03ZM241.41-3.19L241.41-3.19L241.41-3.19Q241.41-2.06 241-1.08L241-1.08L241-1.08Q240.59-0.09 239.88 0.63L239.88 0.63L239.88 0.63Q239.16 1.34 238.19 1.77L238.19 1.77L238.19 1.77Q237.22 2.19 236.09 2.19L236.09 2.19L236.09 2.19Q235 2.19 234.02 1.77L234.02 1.77L234.02 1.77Q233.03 1.34 232.30 0.63L232.30 0.63L232.30 0.63Q231.56-0.09 231.14-1.08L231.14-1.08L231.14-1.08Q230.72-2.06 230.72-3.19L230.72-3.19L230.72-3.19Q230.72-4.28 231.14-5.25L231.14-5.25L231.14-5.25Q231.56-6.22 232.30-6.94L232.30-6.94L232.30-6.94Q233.03-7.66 234.02-8.08L234.02-8.08L234.02-8.08Q235-8.50 236.09-8.50L236.09-8.50L236.09-8.50Q237.22-8.50 238.19-8.08L238.19-8.08L238.19-8.08Q239.16-7.66 239.88-6.94L239.88-6.94L239.88-6.94Q240.59-6.22 241-5.25L241-5.25L241-5.25Q241.41-4.28 241.41-3.19ZM257.94-42.56L257.94-42.56L257.94-42.56Q257.94-41.38 257.48-40.34L257.48-40.34L257.48-40.34Q257.03-39.31 256.27-38.55L256.27-38.55L256.27-38.55Q255.50-37.78 254.45-37.33L254.45-37.33L254.45-37.33Q253.41-36.88 252.25-36.88L252.25-36.88L252.25-36.88Q251.03-36.88 249.98-37.33L249.98-37.33L249.98-37.33Q248.94-37.78 248.16-38.55L248.16-38.55L248.16-38.55Q247.38-39.31 246.92-40.34L246.92-40.34L246.92-40.34Q246.47-41.38 246.47-42.56L246.47-42.56L246.47-42.56Q246.47-43.72 246.92-44.77L246.92-44.77L246.92-44.77Q247.38-45.81 248.16-46.58L248.16-46.58L248.16-46.58Q248.94-47.34 249.98-47.80L249.98-47.80L249.98-47.80Q251.03-48.25 252.25-48.25L252.25-48.25L252.25-48.25Q253.41-48.25 254.45-47.80L254.45-47.80L254.45-47.80Q255.50-47.34 256.27-46.58L256.27-46.58L256.27-46.58Q257.03-45.81 257.48-44.77L257.48-44.77L257.48-44.77Q257.94-43.72 257.94-42.56ZM239.38 12.75L235.03 12.75L235.03 4.16L239.75 4.22L239.75 4.22Q241.47 4.22 242.94 3.52L242.94 3.52L242.94 3.52Q244.41 2.81 245.48 1.64L245.48 1.64L245.48 1.64Q246.56 0.47 247.19-1.06L247.19-1.06L247.19-1.06Q247.81-2.59 247.81-4.28L247.81-4.28L247.81-33.47L256.53-33.47L256.53-4.28L256.47-4.28L256.47-4.28Q256.44-1.94 255.83 0.25L255.83 0.25L255.83 0.25Q255.22 2.44 254.09 4.33L254.09 4.33L254.09 4.33Q252.97 6.22 251.41 7.77L251.41 7.77L251.41 7.77Q249.84 9.31 247.95 10.42L247.95 10.42L247.95 10.42Q246.06 11.53 243.89 12.14L243.89 12.14L243.89 12.14Q241.72 12.75 239.38 12.75L239.38 12.75ZM281.34 0L281.34 0L261.84 0L261.84-8.50L281.34-8.50L281.34-8.50Q282.22-8.50 282.84-9.13L282.84-9.13L282.84-9.13Q283.47-9.75 283.47-10.63L283.47-10.63L283.47-10.63Q283.47-11.53 282.84-11.81L282.84-11.81L282.84-11.81Q282.22-12.09 281.34-12.09L281.34-12.09L272.47-12.09L272.47-12.09Q270.25-12.09 268.31-12.94L268.31-12.94L268.31-12.94Q266.38-13.78 264.94-15.23L264.94-15.23L264.94-15.23Q263.50-16.69 262.67-18.63L262.67-18.63L262.67-18.63Q261.84-20.56 261.84-22.78L261.84-22.78L261.84-22.78Q261.84-25 262.67-26.94L262.67-26.94L262.67-26.94Q263.50-28.88 264.94-30.31L264.94-30.31L264.94-30.31Q266.38-31.75 268.31-32.58L268.31-32.58L268.31-32.58Q270.25-33.41 272.47-33.41L272.47-33.41L289.75-33.41L289.75-24.91L272.47-24.91L272.47-24.91Q271.59-24.91 270.97-24.28L270.97-24.28L270.97-24.28Q270.34-23.66 270.34-22.78L270.34-22.78L270.34-22.78Q270.34-21.88 270.97-21.23L270.97-21.23L270.97-21.23Q271.59-20.59 272.47-20.59L272.47-20.59L281.34-20.59L281.34-20.59Q283.53-20.59 285.47-19.86L285.47-19.86L285.47-19.86Q287.41-19.13 288.84-17.81L288.84-17.81L288.84-17.81Q290.28-16.50 291.13-14.66L291.13-14.66L291.13-14.66Q291.97-12.81 291.97-10.63L291.97-10.63L291.97-10.63Q291.97-8.41 291.13-6.48L291.13-6.48L291.13-6.48Q290.28-4.56 288.84-3.11L288.84-3.11L288.84-3.11Q287.41-1.66 285.47-0.83L285.47-0.83L285.47-0.83Q283.53 0 281.34 0Z" fill="url(#editing-shiny-gradient2)"></path></g></g><style>text {
  font-size: 64px;
  font-family: Arial Black;
  dominant-baseline: central;
  text-anchor: middle;
}</style></svg>